<svg width="387" height="500" viewBox="0 0 387 500" fill="none" xmlns="http://www.w3.org/2000/svg">
<path d="M181.165 356.511H266.607C269.333 356.511 271.943 355.553 274.304 354.202C276.666 352.852 279.1 351.156 280.462 348.815C281.825 346.476 282.773 343.821 282.771 341.12C282.77 338.418 281.827 335.764 280.462 333.426L222.732 234.157C221.369 231.817 219.704 230.121 217.344 228.77C214.983 227.419 211.602 226.461 208.876 226.461C206.15 226.461 203.539 227.419 201.179 228.77C198.818 230.121 197.153 231.817 195.79 234.157L181.165 259.551L151.915 210.299C150.551 207.96 148.889 205.496 146.527 204.145C144.166 202.794 141.556 202.606 138.83 202.606C136.103 202.606 133.494 202.794 131.132 204.145C128.771 205.496 126.338 207.96 124.974 210.299L53.3882 333.426C52.0234 335.764 51.8499 338.418 51.8487 341.12C51.8475 343.821 52.0255 346.475 53.3882 348.815C54.7509 351.155 57.1849 352.852 59.5461 354.202C61.9073 355.553 64.5169 356.511 67.2436 356.511H121.126C142.476 356.511 158.015 346.936 168.85 328.808L195.021 283.406L208.876 259.551L251.212 331.886H195.021L181.165 356.511ZM120.356 331.886H82.6382L138.83 234.926L167.31 283.406L148.445 316.284C141.25 328.046 133.047 331.886 120.356 331.886Z" fill="#00DC82"/>
<path d="M29.0974 99.9939V451.488C29.0974 462.198 37.7823 470.88 48.4957 470.88H287.337C298.05 470.88 306.735 462.198 306.735 451.488V215.679C306.735 210.666 304.793 205.848 301.317 202.235L190.007 86.55C186.35 82.7491 181.302 80.6012 176.027 80.6012H48.4957C37.7823 80.6012 29.0974 89.2836 29.0974 99.9939Z" fill="#00DC82" fill-opacity="0.08"/>
<path fill-rule="evenodd" clip-rule="evenodd" d="M0 99.9939C0 73.2181 21.7123 51.512 48.4957 51.512H176.027C189.215 51.512 201.835 56.8818 210.978 66.384L322.288 182.069C330.978 191.101 335.833 203.147 335.833 215.679V451.488C335.833 478.264 314.12 499.97 287.337 499.97H48.4957C21.7122 499.97 0 478.264 0 451.488V99.9939ZM29.0974 99.9939C29.0974 89.2836 37.7823 80.6012 48.4957 80.6012H176.027C181.302 80.6012 186.35 82.7491 190.007 86.55L301.317 202.235C304.793 205.848 306.735 210.666 306.735 215.679V451.488C306.735 462.198 298.05 470.88 287.337 470.88H48.4957C37.7823 470.88 29.0974 462.198 29.0974 451.488V99.9939Z" fill="url(#paint0_linear_11_1593)"/>
<path fill-rule="evenodd" clip-rule="evenodd" d="M320.071 0C328.441 0 335.226 6.78315 335.226 15.1506V50.906H370.992C379.362 50.906 386.147 57.6892 386.147 66.0566C386.147 74.424 379.362 81.2072 370.992 81.2072H335.226V116.963C335.226 125.33 328.441 132.113 320.071 132.113C311.702 132.113 304.917 125.33 304.917 116.963V81.2072H269.151C260.781 81.2072 253.996 74.424 253.996 66.0566C253.996 57.6892 260.781 50.906 269.151 50.906H304.917V15.1506C304.917 6.78315 311.702 0 320.071 0Z" fill="#FFB800"/>
<defs>
<linearGradient id="paint0_linear_11_1593" x1="352.69" y1="52.9145" x2="18.4668" y2="455.082" gradientUnits="userSpaceOnUse">
<stop stop-color="#06D782"/>
<stop offset="1" stop-color="#58D5A2" stop-opacity="0.12"/>
</linearGradient>
</defs>
</svg>
