<svg width="830" height="307" viewBox="0 0 830 307" fill="none" xmlns="http://www.w3.org/2000/svg">
<g clip-path="url(#clip0_13_304)">
<rect width="830" height="307" fill="#111113"/>
<path d="M411.053 182.082H439.375C440.279 182.082 441.144 181.762 441.926 181.311C442.709 180.86 443.516 180.293 443.968 179.511C444.419 178.73 444.733 177.843 444.733 176.941C444.733 176.039 444.42 175.152 443.968 174.371L424.831 141.213C424.379 140.432 423.827 139.865 423.045 139.414C422.262 138.963 421.142 138.643 420.238 138.643C419.335 138.643 418.469 138.963 417.687 139.414C416.904 139.865 416.352 140.432 415.901 141.213L411.053 149.695L401.357 133.244C400.905 132.463 400.354 131.64 399.571 131.189C398.788 130.737 397.923 130.675 397.019 130.675C396.116 130.675 395.25 130.737 394.468 131.189C393.685 131.64 392.879 132.463 392.427 133.244L368.697 174.371C368.245 175.152 368.187 176.039 368.187 176.941C368.186 177.843 368.245 178.73 368.697 179.511C369.149 180.293 369.956 180.86 370.738 181.311C371.521 181.762 372.386 182.082 373.29 182.082H391.151C398.228 182.082 403.379 178.884 406.97 172.829L415.646 157.663L420.238 149.695L434.272 173.857H415.646L411.053 182.082ZM390.896 173.857H378.393L397.019 141.47L406.46 157.663L400.206 168.645C397.822 172.574 395.102 173.857 390.896 173.857Z" fill="#00DC82"/>
<path d="M360.645 96.4V213.806C360.645 217.384 363.524 220.284 367.075 220.284H446.246C449.798 220.284 452.677 217.384 452.677 213.806V135.041C452.677 133.367 452.033 131.757 450.881 130.551L413.984 91.9094C412.771 90.6399 411.098 89.9224 409.349 89.9224H367.075C363.524 89.9224 360.645 92.8225 360.645 96.4Z" fill="#00DC82" fill-opacity="0.08"/>
<path fill-rule="evenodd" clip-rule="evenodd" d="M351 96.4C351 87.4563 358.197 80.2061 367.075 80.2061H409.349C413.721 80.2061 417.904 81.9997 420.935 85.1736L457.832 123.815C460.713 126.832 462.322 130.855 462.322 135.041V213.806C462.322 222.75 455.125 230 446.246 230H367.075C358.197 230 351 222.75 351 213.806V96.4ZM360.645 96.4C360.645 92.8225 363.524 89.9224 367.075 89.9224H409.349C411.098 89.9224 412.771 90.6399 413.984 91.9094L450.881 130.551C452.033 131.757 452.677 133.367 452.677 135.041V213.806C452.677 217.384 449.798 220.284 446.246 220.284H367.075C363.524 220.284 360.645 217.384 360.645 213.806V96.4Z" fill="url(#paint0_linear_13_304)"/>
<path fill-rule="evenodd" clip-rule="evenodd" d="M457.097 63C459.872 63 462.121 65.2657 462.121 68.0606V80.0036H473.976C476.751 80.0036 479 82.2693 479 85.0642C479 87.8591 476.751 90.1248 473.976 90.1248H462.121V102.068C462.121 104.863 459.872 107.128 457.097 107.128C454.323 107.128 452.074 104.863 452.074 102.068V90.1248H440.218C437.444 90.1248 435.195 87.8591 435.195 85.0642C435.195 82.2693 437.444 80.0036 440.218 80.0036H452.074V68.0606C452.074 65.2657 454.323 63 457.097 63Z" fill="#FFB800"/>
<g filter="url(#filter0_f_13_304)">
<rect x="217" y="-39" width="78" height="433" transform="rotate(90 217 -39)" fill="white" fill-opacity="0.59"/>
</g>
</g>
<defs>
<filter id="filter0_f_13_304" x="-592" y="-415" width="1185" height="830" filterUnits="userSpaceOnUse" color-interpolation-filters="sRGB">
<feFlood flood-opacity="0" result="BackgroundImageFix"/>
<feBlend mode="normal" in="SourceGraphic" in2="BackgroundImageFix" result="shape"/>
<feGaussianBlur stdDeviation="188" result="effect1_foregroundBlur_13_304"/>
</filter>
<linearGradient id="paint0_linear_13_304" x1="467.91" y1="80.6745" x2="356.12" y2="214.168" gradientUnits="userSpaceOnUse">
<stop stop-color="#06D782"/>
<stop offset="1" stop-color="#58D5A2" stop-opacity="0.12"/>
</linearGradient>
<clipPath id="clip0_13_304">
<rect width="830" height="307" fill="white"/>
</clipPath>
</defs>
</svg>
